<svg width="229" height="192" viewBox="0 0 229 192" fill="none" xmlns="http://www.w3.org/2000/svg">

<g id="Desktop" clip-path="url(#clip0_0_1)">

<g id="Group 3">
<g id="noun-guitar-pick-4239156 1">
<path id="Vector" d="M-43.2731 -8.88649L-43.2386 -8.56046C-43.3584 -7.61504 -43.8021 -4.54829 -44.2097 0.160515L-44.2089 0.159541C-45.8239 18.3619 -45.7324 36.676 -43.9364 54.859C-41.8949 73.0165 -38.1597 90.9435 -32.7797 108.406C-31.3954 112.925 -30.3195 115.832 -30.0045 116.731L-29.97 117.057L-29.9701 117.056C-23.8512 131.623 -12.5537 143.407 1.7414 150.135C16.0374 156.863 32.3183 158.059 47.4427 153.491C47.9314 153.439 48.3753 153.228 48.7985 153.073C142.613 124.315 192.34 53.455 195.381 48.7416L195.548 48.5042C199.616 42.8273 201.457 35.854 200.722 28.9094C199.987 21.9639 196.727 15.5304 191.561 10.831L191.348 10.6337C187.398 6.7703 123.94 -52.1106 26.1841 -60.5923C25.7494 -60.5463 25.2681 -60.6875 24.7709 -60.717C9.03001 -62.0102 -6.6322 -57.4299 -19.1962 -47.86C-31.7599 -38.2901 -40.3362 -24.4069 -43.2726 -8.88798L-43.2731 -8.88649Z" fill="#4F2C3D"/>
</g>
<g id="Group 2">
<g id="Gemini_Generated_Image_ohl3gwohl3gwohl3 1">
<g id="Group">
<g id="Vector_2" filter="url(#filter0_d_0_1)">
<path d="M142.813 81.4342C142.766 81.3725 143.44 80.9526 144.309 80.5029C147.447 78.8765 148.948 76.8489 149.304 73.7588C149.456 72.4424 149.189 70.6004 148.699 69.5792C148.315 68.7833 148.409 68.6036 148.819 69.3468C150.767 72.875 149.951 77.2701 146.888 79.754C145.607 80.7914 143.115 81.8206 142.813 81.4342ZM83.904 87.1038C80.9398 86.9432 77.7822 86.3635 74.6731 85.4089C71.4411 84.4142 67.941 82.8841 62.3074 80.0006C55.0427 76.2819 51.3098 74.7522 47.4537 73.913C43.2673 73.0011 39.3565 73.3984 36.7583 74.9995C34.2701 76.5329 33.0575 79.3363 33.8182 81.7943C33.9687 82.2816 34.1725 82.7981 34.2697 82.9408C34.367 83.0836 34.4127 83.2425 34.3695 83.294C34.2512 83.4414 33.5619 82.161 33.2837 81.272C32.7538 79.5866 33.2442 77.5069 34.5414 75.948C35.987 74.2097 37.8736 73.3613 41.0289 73.0274C46.2248 72.4805 51.1358 74.0143 61.8784 79.5413C67.6488 82.5104 71.732 84.2303 75.4402 85.2534C81.6091 86.9557 87.2795 86.9678 93.0696 85.2926C97.0998 84.1249 100.256 82.783 107.047 79.3528C119.141 73.2442 121.581 72.0826 124.865 70.8772C130.286 68.8865 134.992 68.2292 138.494 68.974C140.051 69.3033 141.534 69.9329 142.254 70.5676L142.757 71.0114L142.202 70.6519C139.83 69.119 135.294 68.7837 130.762 69.806C125.525 70.9877 122.285 72.4007 107.055 80.1417C101.424 83.0034 97.4634 84.6714 93.3919 85.8935C91.2139 86.5484 85.9776 87.2163 83.904 87.1038ZM142.662 80.1741C144.03 78.9577 144.877 77.1843 144.98 75.3199C145.029 74.4053 144.98 74.0589 144.667 73.1281C143.762 70.4473 141.381 68.8381 137.526 68.3036C136.211 68.1213 135.729 68.1345 132.899 68.4386C129.409 68.814 128.035 69.1535 124.275 70.5638C120.899 71.8305 119.845 72.3361 104.894 79.855C99.7458 82.4445 96.5454 83.7607 92.5242 84.9411C91.0059 85.3883 90.2092 85.5226 87.344 85.8228C84.426 86.1271 83.7348 86.1518 82.3426 86.0081C75.6337 85.3133 71.4814 83.8749 61.4949 78.7923C52.5906 74.2604 47.901 72.6047 43.4764 72.4319C39.2992 72.2677 35.9016 73.4321 34.0456 75.6625C31.7266 78.4496 32.1968 82.3888 35.1237 84.7131C37.9645 86.9707 41.945 86.9874 44.563 84.7537C45.3487 84.084 45.4649 84.0323 45.4975 84.3396C45.5297 84.6438 44.1922 86.0812 43.5083 86.4764C41.9252 87.3897 39.8072 87.8063 37.9429 87.5717C34.9529 87.1955 32.118 84.9357 31.0451 82.0727C30.6195 80.9416 30.4181 79.0821 30.5904 77.8923C31.3132 72.8902 35.6386 69.2648 41.6504 68.621C47.1433 68.0335 53.0229 69.7195 62.1046 74.4902C71.4808 79.4131 76.1583 81.2278 81.2676 81.9177C84.2483 82.3206 85.9635 82.3255 88.6645 81.9396C93.6362 81.23 98.1425 79.4284 109.411 73.6496C123.449 66.4501 127.715 64.8148 134.274 64.1206C137.918 63.7349 140.338 63.9684 143.107 64.9711C144.64 65.5273 146.884 67.2782 147.645 68.5147C148.222 69.4539 148.756 70.9675 148.867 71.9864C148.971 72.9241 148.665 74.8798 148.259 75.8745C147.528 77.6722 145.658 79.4311 143.704 80.1608C142.425 80.6372 142.138 80.6403 142.662 80.1741ZM84.3069 79.3954C83.4984 79.3188 81.4875 78.6768 81.6046 78.5326C81.6425 78.4876 82.1185 78.5721 82.6637 78.7206C84.7339 79.2896 86.6446 78.9706 88.6083 77.7292C91.4989 75.9001 93.2413 72.2662 92.6968 69.2062C92.5935 68.6322 92.4523 68.0318 92.3822 67.8725C92.3136 67.713 92.3936 67.8076 92.5625 68.0807C93.0092 68.8079 93.2933 70.7587 93.1214 71.9242C92.5665 75.6946 89.7339 78.6891 86.1561 79.286C85.5612 79.3869 84.728 79.4357 84.3069 79.3954ZM83.3264 78.5989C82.2978 78.4547 80.8775 77.7866 80.0535 77.0599C78.2628 75.4792 77.2777 73.1586 77.0066 69.8787C76.8857 68.4199 76.8119 68.0822 76.5352 67.7098L76.2056 67.2703L76.666 66.7033C77.0349 66.2505 77.1568 65.892 77.2802 64.9166C77.5074 63.1238 78.0706 60.8545 78.7287 59.0798L79.3088 57.5165L78.1723 57.1154L77.0359 56.7143L76.7908 57.2737C75.9831 59.1158 74.6875 61.3505 73.7297 62.5507C71.4792 65.3669 69.1687 66.7678 66.2677 67.0748C63.7384 67.3425 61.8746 66.4516 60.8992 64.5103C60.5524 63.8211 60.4608 63.4306 60.3886 62.3168C60.2686 60.5077 60.6427 59.3557 61.7656 58.0759C63.0841 56.5754 64.7779 56.1187 66.4286 56.8215L67.1504 57.1286L67.8431 56.5006C69.0176 55.4351 70.16 54.9732 72.4448 54.6374L74.4316 54.3468L74.4774 53.9464C74.5012 53.7256 74.6668 52.7169 74.8456 51.7037C75.2662 49.3085 75.2507 49.2056 74.5766 49.9953C73.691 51.0302 72.8711 51.549 71.7999 51.7503C69.8813 52.1094 68.6443 51.19 67.8297 48.7983L67.6813 48.3593L67.4927 48.834C67.1459 49.7118 65.9169 51.6272 65.1355 52.5102C64.1079 53.6692 62.8672 54.6553 61.9679 55.0279C60.933 55.4572 59.1213 55.6186 58.3171 55.3521C56.567 54.7735 55.2436 52.7933 54.9868 50.3667C54.9213 49.7477 54.8202 49.569 54.2193 49.0097L53.5287 48.3644L54.1565 48.057C54.8452 47.7204 54.8401 47.73 55.834 44.7861C56.7922 41.9506 58.1508 40.0669 60.1457 38.8039C61.1097 38.1942 61.321 38.1203 62.445 38.0013C63.7811 37.8599 64.198 37.9886 64.9227 38.7697C65.3931 39.2746 65.564 41.0767 65.2765 42.4863C64.748 45.0688 62.2365 48.0065 59.6593 49.0583L58.8017 49.4083L58.9753 50.3296C59.19 51.4663 59.7626 52.4923 60.3546 52.7949C61.0753 53.1642 62.3256 52.9591 63.1841 52.3302C64.6303 51.2739 66.1253 49.0681 67.0072 46.6908C67.4416 45.5187 67.4652 45.0661 67.1188 44.4814C66.9243 44.1534 66.9447 44.0588 67.3171 43.5813C67.5464 43.2888 68.0255 42.209 68.3823 41.1816C69.1393 39.0039 69.873 37.641 70.9268 36.4565C72.7337 34.4238 75.2172 33.7517 76.5904 34.9234C76.8446 35.1405 77.0958 35.314 77.1484 35.3084C77.2026 35.3027 77.2583 34.9952 77.2754 34.6251C77.3112 33.7983 77.4278 33.6784 78.427 33.4438C78.8633 33.34 79.5737 33.08 80.0088 32.8642C80.6275 32.5562 80.8471 32.5041 81.0304 32.6257C81.2333 32.7603 81.2406 32.8581 81.0861 33.3533C80.4759 35.3079 79.9862 38.9471 80.2496 39.5664C80.3263 39.7447 80.507 39.9998 80.6502 40.1317C80.8913 40.3532 80.8797 40.4166 80.5039 40.905C79.8898 41.702 79.7157 42.2994 79.4599 44.468C79.0341 48.0928 78.6918 50.2069 78.1639 52.4786C77.8767 53.7184 77.6182 54.8416 77.5901 54.9779C77.553 55.1592 77.85 55.3353 78.7281 55.6531C79.3829 55.8885 80.0065 56.0725 80.1148 56.0611C80.2231 56.0496 80.466 55.7284 80.654 55.3478C80.8434 54.967 81.6217 53.9101 82.3835 53.0005C84.3964 50.5989 86.4318 49.3301 88.6512 49.0952C91.3039 48.8145 93.0704 50.2234 93.3475 52.8418C93.6242 55.4421 92.2563 58.4452 90.2452 59.6569C89.5586 60.069 89.2122 60.1754 88.1891 60.2837C87.0305 60.4063 86.9268 60.39 86.4482 60.0224C85.9263 59.6199 85.5652 58.9246 85.4834 58.1664C85.4444 57.8128 85.3938 57.7651 85.186 57.8871C85.0486 57.9684 84.2949 58.1072 83.5115 58.1947L82.0888 58.3529L81.6174 59.9941C80.7475 63.031 80.4245 66.2752 80.655 69.6608C80.8136 71.9932 81.1273 73.2604 81.9553 74.9172C82.4361 75.8802 83.7929 76.9112 84.8013 77.0803C86.73 77.4051 88.8124 76.0632 90.0146 73.7216C90.7704 72.2519 90.8948 71.5006 90.6558 69.8754C90.466 68.5997 90.4559 68.5765 89.8471 68.1287C89.4263 67.8186 89.0857 67.6909 88.7712 67.7242C88.2009 67.7846 87.5195 68.2174 87.3539 68.6229C87.1801 69.0505 87.3464 70.4061 87.5936 70.5709C87.7064 70.6453 87.9737 70.8125 88.1868 70.943L88.5768 71.1776L88.2675 71.5332C87.8373 72.0258 87.2489 72.1881 86.5922 71.9924C84.495 71.3686 85.0072 67.7695 87.364 66.5758C88.5538 65.9725 90.6377 66.2111 91.3591 67.032C91.7517 67.4785 92.4193 69.0856 92.4902 69.7555C92.5232 70.0673 92.4578 70.8002 92.3445 71.3835C91.8456 73.9583 90.3833 76.1273 88.2286 77.4905C87.0563 78.2314 86.9302 78.2766 85.4631 78.4743C84.6172 78.5896 83.6553 78.6444 83.3264 78.5989ZM67.6973 65.3443C68.0673 65.1884 68.6292 64.891 68.9468 64.6861C70.4461 63.7136 72.2147 60.9741 73.2909 57.9594C73.7883 56.564 73.8325 56.335 73.6127 56.2415C73.474 56.182 72.6102 56.2431 71.6933 56.378C70.2804 56.5851 69.9191 56.6931 69.3155 57.0859C68.2709 57.7678 68.0551 58.115 68.3272 58.6879C69.0192 60.1514 68.5495 61.55 67.3101 61.7145C66.8015 61.782 66.5968 61.7309 66.3417 61.4775C65.9097 61.0474 65.8331 60.1658 66.1407 59.1754L66.3897 58.3807L66.0207 58.1424C65.1242 57.5643 63.8291 57.8924 62.8572 58.9455C62.0163 59.856 61.6794 60.8555 61.7965 62.092C61.9753 63.9963 62.7119 65.0475 64.257 65.6008C65.0574 65.8889 66.6951 65.7656 67.6973 65.3443ZM89.3969 58.8146C90.4683 58.2283 91.4799 56.1419 91.6135 54.2408C91.8495 50.8785 89.7501 49.3866 87.0443 50.9916C85.9835 51.6207 84.4179 53.5338 83.4511 55.3821C82.7449 56.7315 82.7602 56.7602 84.1797 56.76C85.2982 56.7613 85.5675 56.6464 85.6407 56.1309C85.7209 55.5662 87.0229 54.0235 87.574 53.8394C88.2089 53.6282 88.6762 53.8455 88.7325 54.3775C88.7574 54.6129 88.6843 54.8995 88.569 55.0178C88.455 55.1344 88.1003 55.6645 87.7807 56.1954C87.3046 56.9869 87.2132 57.274 87.2688 57.7985C87.3987 59.0261 88.2593 59.4381 89.3969 58.8146ZM73.9472 48.2751C74.3119 47.8682 74.6735 47.1737 75.0103 46.2302C75.7152 44.2505 75.8898 43.1681 75.6669 42.1262C75.515 41.4103 75.5272 41.2377 75.7505 40.9898C76.2362 40.4473 76.4158 39.3553 76.2599 37.882C76.0887 36.2648 75.8358 35.902 74.939 35.9969C74.4876 36.0447 74.2977 36.1906 73.7229 36.941C72.6293 38.3678 71.6495 41.5026 72.0102 42.4238C72.0873 42.6203 71.9885 43.1097 71.7463 43.7537C71.376 44.7264 71.3675 44.8471 71.5434 46.5092C71.6927 47.9196 71.785 48.3175 72.0366 48.6243C72.5082 49.1988 73.2351 49.0658 73.9472 48.2751ZM61.3376 45.8526C62.4392 44.4159 63.2088 41.8822 63.043 40.2447C62.9388 39.2312 62.0575 39.4003 61.1046 40.6181C60.0819 41.9237 58.9795 45.2655 58.9487 47.1451L58.9375 47.8874L59.8081 47.3012C60.2866 46.9777 60.9753 46.3259 61.3376 45.8526ZM82.5802 75.3148C82.3894 75.0652 82.0218 74.2509 81.7633 73.5053C81.3472 72.305 81.272 71.8537 81.1005 69.5576C80.8392 66.0388 81.2151 62.4889 82.1459 59.682L82.4691 58.7112L83.7575 58.593C84.6223 58.5121 85.0763 58.5323 85.1375 58.6501C85.2642 58.8988 84.6337 59.0944 83.7779 59.0728C83.2561 59.0598 83.0125 59.1159 82.9091 59.2739C82.6763 59.6335 82.009 62.3852 81.7672 63.9824C81.4841 65.8644 81.3386 69.3202 81.4858 70.7111C81.6212 72.0047 82.1933 74.0599 82.6893 75.038C83.1104 75.8679 83.0744 75.9597 82.5802 75.3148ZM86.9246 72.7029C86.3139 72.5113 85.9821 72.1646 86.5397 72.301C87.6034 72.5613 88.9204 71.9657 88.8457 71.2598C88.7938 70.7697 89.0447 70.7825 89.1991 71.2784C89.3724 71.8375 89.0731 72.3451 88.4187 72.6023C87.7192 72.8794 87.5273 72.8922 86.9246 72.7029ZM95.4285 71.6406C95.0503 71.4745 95.0646 71.4655 95.7356 71.4808C97.1783 71.5115 98.6851 70.4245 99.3784 68.8522C99.6482 68.2386 99.7623 68.1098 99.9084 68.2535C100.342 68.6729 98.9724 70.8094 97.8908 71.4012C97.2794 71.7342 95.9392 71.8654 95.4285 71.6406ZM95.2816 71.1303C94.8126 70.9965 94.2598 70.3882 94.0022 69.7228C93.8808 69.4098 93.7162 68.386 93.6367 67.4487C93.5175 66.0488 93.4387 65.6783 93.1924 65.3785C92.8972 65.0187 92.9002 65.0032 93.3417 64.4594C93.6957 64.0233 93.8339 63.6192 93.9991 62.5347C94.3299 60.3552 95.1589 56.5724 95.6937 54.7972C96.4693 52.2204 97.806 49.8419 98.8747 49.1286C99.0936 48.9827 99.547 48.8241 99.8811 48.7751C100.383 48.7008 100.564 48.7544 100.912 49.0828C101.3 49.4449 101.339 49.568 101.372 50.5436C101.42 51.9147 101.243 52.6745 100.249 55.3699C99.718 56.8083 99.0371 58.2535 98.296 59.5171C97.671 60.5835 97.037 61.71 96.8887 62.0197C96.261 63.3199 95.9866 67.8138 96.4768 68.7653C96.9673 69.7197 98.1398 68.7226 98.8779 66.7258C99.2916 65.6029 99.371 64.182 99.0368 63.8566C98.8927 63.7173 98.9069 63.6067 99.0959 63.3942C99.2349 63.2415 99.6542 62.3014 100.03 61.3054C101.074 58.538 102.436 56.9844 104.156 56.6008C104.74 56.4708 104.95 56.4986 105.463 56.7732C105.8 56.9542 106.1 57.0998 106.128 57.0968C106.157 57.0937 106.204 56.9205 106.234 56.7128C106.276 56.4219 106.414 56.3012 106.841 56.1847C107.146 56.1009 107.708 55.9232 108.092 55.7885C109.067 55.4475 109.241 55.6139 108.938 56.6024C108.811 57.0159 108.622 57.9634 108.519 58.7094C108.366 59.7986 108.372 60.1512 108.543 60.515C108.732 60.9147 108.719 61.0147 108.421 61.3963C108.207 61.672 108.023 62.2629 107.909 63.0388C107.62 65.0002 107.807 65.7095 108.586 65.627C109.316 65.5498 110.774 61.9854 111.5 58.4985C112.108 55.5849 112.107 55.5789 111.308 54.9011C110.73 54.4106 110.628 54.2411 110.566 53.6595C110.46 52.6583 110.832 51.8415 111.57 51.4527C112.152 51.1471 112.197 51.1438 112.597 51.3789C112.98 51.6051 113.028 51.7288 113.192 52.8966L113.369 54.1676L114.69 54.4371C116.456 54.7987 116.847 55.0772 116.941 56.0387C117.132 58.0161 117.122 58.9022 116.901 59.2908C116.345 60.2727 116.161 62.7141 116.615 63.0798C117.237 63.5808 118.102 62.6162 118.874 60.5612C119.529 58.8172 119.607 58.3588 119.344 57.8046C119.156 57.4062 119.177 57.3131 119.556 56.8304C119.972 56.3029 120.062 55.8281 120.329 52.7142C120.374 52.2062 120.417 52.1653 121.207 51.9226C121.663 51.7803 122.252 51.5634 122.516 51.44C122.816 51.2991 123.052 51.2634 123.151 51.3425C123.249 51.4215 123.204 52.1174 123.026 53.2138C122.642 55.593 122.629 55.8414 122.861 56.2988C123.034 56.6396 123.016 56.7659 122.734 57.1822C122.298 57.8239 122.06 59.192 122.172 60.4001C122.258 61.3353 122.277 61.3756 122.642 61.3719C123.476 61.3639 124.119 60.1804 125.402 56.2844C125.812 55.0407 126.361 53.1881 126.625 52.1675C127.221 49.8522 127.348 49.5266 127.879 48.9779C129.014 47.8014 130.28 48.3206 129.618 49.6894C129.403 50.1367 129.373 50.4186 129.484 50.9631C129.667 51.8622 130.432 53.3544 130.985 53.89C131.409 54.3013 131.425 54.3042 131.851 54.0226C132.74 53.439 133.69 51.7729 134.525 49.3247C134.85 48.3689 135.223 47.3851 135.352 47.1381C135.918 46.0567 137.569 45.7167 137.669 46.661C137.685 46.8063 137.582 47.2173 137.442 47.5717C137.242 48.0762 137.222 48.3709 137.351 48.912C137.527 49.6602 139.138 52.2526 139.471 52.325C139.885 52.416 141.043 50.6294 141.68 48.9175C142.773 45.9783 144.453 44.1849 146.295 43.9899C147.767 43.8342 148.519 44.6336 148.541 46.3757C148.556 47.6078 148.228 48.4988 147.318 49.7136C146.587 50.6882 144.938 51.9282 144.279 51.9979C144.001 52.0274 143.992 52.1011 144.155 52.919C144.41 54.2105 144.997 55.0713 145.798 55.3367C146.733 55.6454 147.414 55.5278 148.377 54.8894C151.513 52.81 152.968 47.8956 151.569 44.1077C151.009 42.5953 150.261 41.5817 149.012 40.65C148.227 40.0647 147.841 39.8949 146.81 39.6872C144.617 39.2434 142.82 39.6337 141.373 40.8704C140.23 41.8447 139.955 42.9286 140.488 44.3575C140.631 44.741 140.084 44.7367 139.544 44.3498C139.09 44.0235 138.987 43.8435 138.85 43.1214C138.638 42.0102 138.876 41.1393 139.656 40.1625C140.776 38.7648 142.468 38.0008 144.649 37.9079C147.814 37.7729 150.52 39.1415 152.137 41.6939C154.499 45.4268 153.938 50.5604 150.756 54.3087C149.508 55.776 148.083 56.6316 146.449 56.8909C144.833 57.1468 144.071 57.0062 143.098 56.2742C142.146 55.5596 141.534 54.5361 141.294 53.2612C141.197 52.75 141.078 52.3398 141.027 52.3482C140.977 52.3565 140.725 52.5848 140.469 52.8559C140.01 53.3379 140.004 53.3673 140.15 54.4113C140.425 56.3904 139.695 57.968 138.019 59.0229C135.801 60.4171 133.715 60.0165 133.293 58.1137C132.921 56.4359 133.588 55.2953 135.495 54.3508C136.102 54.0501 136.594 53.748 136.587 53.6821C136.58 53.6161 136.374 53.2514 136.128 52.8743C135.883 52.4956 135.57 51.8831 135.433 51.5126C135.297 51.1421 135.142 50.8447 135.09 50.8533C135.037 50.8618 134.803 51.308 134.567 51.8468C134.093 52.9245 132.924 54.582 132.318 55.0295C131.935 55.3141 131.933 55.325 132.143 56.6031C132.324 57.71 132.318 58.0046 132.096 58.7116C131.725 59.9058 130.635 61.0775 129.412 61.601C127.277 62.5136 125.854 62.1065 125.314 60.4297L125.135 59.8713L124.756 60.7435C124.329 61.7268 123.463 62.7657 122.743 63.1587C122.478 63.3034 121.924 63.4575 121.515 63.5009C120.889 63.5671 120.69 63.5154 120.277 63.1832C120.005 62.965 119.713 62.5488 119.625 62.2535L119.464 61.7189L119.097 62.4563C118.288 64.0833 116.995 65.1917 115.752 65.3232C115.123 65.3898 114.292 64.867 113.99 64.2154C113.681 63.5495 113.578 61.6901 113.779 60.4185C113.849 59.9731 113.855 59.4753 113.794 59.3106C113.724 59.127 113.784 58.8706 113.947 58.6487C114.506 57.8893 114.607 56.986 114.198 56.3852C113.936 56.0021 113.078 55.6792 113.025 55.9455C111.82 62.0354 110.593 65.4843 109.147 66.8453C108.526 67.4309 107.785 67.8336 107.221 67.8933C106.646 67.9542 105.855 67.4211 105.563 66.776L105.336 66.2741L104.921 67.0379C104.104 68.5384 102.714 69.4722 101.641 69.2417C101.08 69.1207 99.9334 68.2024 99.8955 67.8442C99.8449 67.366 99.5491 67.5186 99.3082 68.1458C98.8831 69.2471 97.7604 70.4996 96.8641 70.8718C95.9997 71.2301 95.7649 71.2686 95.2816 71.1303ZM103.721 66.8118C104.529 66.214 105.302 63.8709 105.175 62.4097C105.12 61.773 105.171 61.3478 105.339 61.0283C105.512 60.7024 105.565 60.2285 105.52 59.433C105.464 58.428 105.417 58.2738 105.103 58.0449C104.757 57.7936 104.741 57.7937 104.255 58.1256C103.61 58.5636 102.812 60.0925 102.559 61.3711C102.449 61.9238 102.37 62.4884 102.383 62.6249C102.397 62.7598 102.338 63.151 102.254 63.4933C102.17 63.8356 102.147 64.5747 102.202 65.1358C102.324 66.3656 102.686 67.0123 103.292 67.0846C103.321 67.0876 103.514 66.9656 103.721 66.8118ZM128.704 60.3013C129.108 59.8357 129.36 58.7179 129.264 57.8156L129.189 57.1052L128.641 57.3193C127.144 57.9052 126.473 58.7445 126.593 59.8852C126.643 60.3664 126.745 60.5633 127.023 60.7202C127.491 60.9859 128.284 60.7883 128.704 60.3013ZM136.522 58.2614C137.063 57.7374 137.26 57.0875 137.235 55.9141C137.215 54.9296 137.195 54.8696 136.903 54.9005C136.733 54.9185 136.193 55.1969 135.705 55.5198C135.047 55.9532 134.757 56.2598 134.585 56.6947C134.018 58.1461 135.447 59.3027 136.522 58.2614ZM127.977 56.4514C128.344 56.3065 128.671 56.1325 128.703 56.0639C128.735 55.9953 128.506 55.4557 128.191 54.8632C127.877 54.2704 127.608 53.6654 127.592 53.5185C127.546 53.0794 127.377 53.4564 126.731 55.4466C126.394 56.4826 126.034 57.4982 125.93 57.7048C125.776 58.0075 125.893 57.9466 126.526 57.3977C126.959 57.0229 127.612 56.5961 127.977 56.4514ZM98.2635 57.3987C99.6583 54.4185 100.478 51.7855 100.359 50.6644C100.234 49.4819 99.3991 50.5327 98.5885 52.8933C98.1079 54.29 97.2754 57.7806 97.1455 58.9402C97.0411 59.8651 97.2309 59.6025 98.2635 57.3987ZM145.605 49.6342C146.335 48.675 146.595 48.1169 146.772 47.1328C146.966 46.0619 146.779 45.2163 146.36 45.2607C145.371 45.3654 144.272 47.8475 144.085 50.3968L144.043 50.9771L144.585 50.6212C144.883 50.4261 145.342 49.9818 145.605 49.6342ZM101.636 69.7651C100.931 69.5442 101.045 69.4366 101.85 69.5606C102.784 69.7057 103.686 69.2117 104.668 68.015C105.094 67.4955 105.48 67.1 105.526 67.1375C105.912 67.4483 104.874 69.0344 103.956 69.5362C103.326 69.8802 102.323 69.9788 101.636 69.7651ZM87.864 70.2937C87.0194 69.0994 88.3962 67.4441 89.5915 68.2148L89.9574 68.452L89.4288 68.4458C88.6733 68.4378 88.1359 69.0388 88.1039 69.9303C88.0817 70.554 88.0662 70.5799 87.864 70.2937ZM106.793 68.3191C106.419 68.157 106.443 68.1469 107.169 68.1519C109.699 68.1675 111.654 64.7597 112.936 58.0919C113.127 57.0971 113.311 56.2501 113.345 56.2071C113.38 56.1655 113.517 56.2041 113.651 56.293C113.86 56.4315 113.869 56.5033 113.72 56.7995C113.624 56.99 113.488 57.5273 113.417 57.9925C113.197 59.4525 112.323 62.7429 111.773 64.1878C111.111 65.9205 110.167 67.3784 109.351 67.9225C108.628 68.4052 107.422 68.5919 106.793 68.3191ZM96.6753 67.6076C96.5419 66.3334 96.6402 64.1709 96.8827 63.0692C96.9861 62.5944 97.5808 61.3994 98.4118 59.9929C100.304 56.7918 101.488 53.6261 101.824 50.8838L101.946 49.8857L101.997 51.0246C102.112 53.5798 100.867 57.1307 98.5629 60.8165C98.0176 61.6881 97.5107 62.6632 97.4364 62.9818C97.1756 64.0976 96.9009 66.835 96.9579 67.7474C97.0395 69.0361 96.8147 68.925 96.6753 67.6076ZM17.2666 76.4411C16.2069 76.3335 14.6062 75.8588 14.8819 75.7326C14.9721 75.6928 15.1733 75.7109 15.3307 75.7746C16.4936 76.2395 20.4613 75.8332 22.2259 75.0675C26.5695 73.1816 30.2403 68.604 32.6398 62.0786C33.5991 59.4687 34.4409 56.2954 35.9072 49.7505C37.181 44.0747 37.3108 43.6048 37.4233 44.2658C37.5265 44.8672 37.3257 45.9888 36.2397 50.9081C34.7049 57.8558 34.0678 60.1739 32.7747 63.4965C31.6398 66.4159 30.5249 68.4466 28.9163 70.528C26.8942 73.1442 24.7472 74.8537 22.3803 75.7362C21.0908 76.2167 18.5322 76.5678 17.2666 76.4411ZM115.845 65.9272C114.928 65.8 115.018 65.6283 116.065 65.5068C116.836 65.4161 117.207 65.2936 117.579 65.0055C118.134 64.5786 119.322 63.0736 119.297 62.8323C119.288 62.7469 119.348 62.6692 119.431 62.6605C119.667 62.6355 119.675 63.2863 119.445 63.7245C118.618 65.2881 117.253 66.1222 115.845 65.9272ZM16.3072 75.4696C15.0481 75.3331 14.0972 75.017 12.8643 74.323C10.9731 73.2592 9.71357 71.8102 8.69635 69.5308C8.22331 68.4684 8.12433 68.0652 7.97584 66.5759C7.35656 60.3942 11.151 55.1882 16.7141 54.5888C19.5544 54.2836 22.075 55.3415 23.2952 57.3538C23.7356 58.0787 23.8016 58.3293 23.9645 59.8822C24.1302 61.4621 24.1184 61.6816 23.8174 62.5031C23.3794 63.6983 22.2345 64.9849 21.2418 65.3961C19.6662 66.0494 18.0719 65.8787 17.2651 64.9698C16.7607 64.4018 16.4293 62.7516 16.7215 62.2629C16.891 61.9813 16.9272 61.9926 17.3657 62.4554C17.8879 63.0049 18.8057 63.2381 19.5171 63.0022C20.4857 62.6799 21.2722 61.1114 21.1364 59.7708C20.859 57.0494 18.382 55.5838 15.4178 56.3856C14.0053 56.7685 12.7881 57.6172 11.6955 58.9817C10.0424 61.0451 9.3419 63.4972 9.61811 66.2505C9.88852 68.9348 10.7488 70.5791 12.7017 72.1396C15.1435 74.0924 17.6138 74.3735 20.6654 73.0457C25.4304 70.9727 29.2541 64.6194 32.4571 53.4515C33.0974 51.221 33.4634 49.8197 34.7567 44.6451C35.4421 41.9066 36.8543 37.9697 37.5693 36.8043C38.0975 35.9436 38.1975 35.6951 37.9317 35.9006C37.8528 35.9604 36.8855 36.1083 35.7828 36.2265C33.9698 36.4199 33.5794 36.4112 31.707 36.1289C30.5674 35.9571 28.94 35.7762 28.0919 35.7265C26.6666 35.644 26.4424 35.6677 25.1567 36.0266C23.2756 36.5545 22.1453 37.2743 21.032 38.6592C18.4586 41.8597 18.7853 46.528 21.7264 48.5977C22.9659 49.4698 24.428 49.6272 25.8433 49.0409C26.629 48.7153 27.6679 47.4474 27.8012 46.6513C28.1127 44.7935 27.3809 43.5282 25.9098 43.3868C25.3627 43.3356 25.2878 42.8146 25.7412 42.2104C26.5466 41.137 28.198 40.9986 29.2356 41.9179C30.8978 43.3909 30.7985 46.3204 29.0124 48.5206C25.6419 52.6724 18.971 51.1142 17.3929 45.8069C16.7783 43.738 16.8463 42.1091 17.6395 39.9428C19 36.222 22.4754 33.6944 26.8999 33.2049C28.1994 33.0628 30.6976 33.2486 32.0529 33.5901C33.8521 34.0423 36.4308 34.3134 37.6812 34.1811C39.1061 34.0303 40.4299 33.5704 41.1609 32.9732C41.4479 32.7382 41.7839 32.5344 41.9088 32.5212C42.2564 32.4844 42.4365 33.1655 42.2003 33.6225C41.2092 35.543 41.0491 40.1113 41.8365 43.9715C42.0523 45.0323 42.3352 46.4982 42.4644 47.2302L42.6995 48.5603L43.0757 47.2413C43.282 46.5162 43.9523 44.6266 44.5636 43.0418C47.3257 35.8884 50.8165 30.1568 53.7673 27.9333C55.2412 26.8225 57.1306 26.1148 57.6029 26.4952C57.9156 26.7471 57.865 26.8722 57.3327 27.1619C56.5818 27.5718 55.6369 28.7357 55.0874 29.926C53.2274 33.9588 51.7716 41.9833 51.5862 49.2308C51.5182 51.9236 52.1276 56.6317 52.755 58.2476C53.3227 59.7152 53.9985 60.6803 54.9028 61.3181C55.7973 61.9494 56.5028 62.0309 57.3858 61.604C58.1226 61.2486 58.1895 61.2628 58.1167 61.754C57.8581 63.5227 54.8475 64.7917 52.6707 64.049C51.689 63.7149 50.3294 62.7297 49.7293 61.9188C48.7475 60.592 47.7968 58.0782 47.4011 55.7633C46.7787 52.1251 47.4268 43.8012 48.724 38.7776C49.0219 37.6246 49.246 36.6657 49.2227 36.647C49.1578 36.5947 47.7609 39.6404 46.9069 41.6919C45.5254 45.0133 44.0192 49.7149 43.617 51.9672C43.5111 52.5619 43.4515 53.7095 43.4837 54.5169C43.6298 58.1115 42.6362 61.9208 41.0957 63.6676C40.263 64.6121 39.0781 65.2194 38.6841 64.9035C38.6308 64.8606 38.7115 64.358 38.864 63.7856C39.5986 61.0374 39.5737 59.8821 38.595 50.7786C37.9447 44.735 37.7938 42.8929 37.8528 41.7394C37.8932 40.9424 37.9589 40.1686 37.9993 40.0188C38.0383 39.8692 38.0334 39.7515 37.9868 39.7564C37.722 39.7845 36.6851 43.6877 35.4327 49.3643C34.1554 55.1511 33.3543 58.2776 32.4487 61.006C30.1239 68.0071 25.9303 73.2371 21.344 74.8577C19.9126 75.3639 17.7554 75.6255 16.3072 75.4696ZM121.163 64.1458C120.531 63.9657 120.587 63.7764 121.252 63.853C122.552 64.0033 123.967 63.0777 124.816 61.5191C125.211 60.7923 125.435 60.7792 125.335 61.487C125.257 62.0409 124.221 63.3811 123.585 63.7546C122.977 64.1099 121.742 64.3104 121.163 64.1458ZM108.235 64.582C108.057 63.099 108.761 60.6056 109.205 61.1435C109.308 61.2675 109.269 61.5596 109.093 61.989C108.945 62.3502 108.752 63.0966 108.661 63.6488C108.366 65.4608 108.347 65.5069 108.235 64.582ZM127.285 62.628L126.674 62.4198L127.863 62.3469C129.538 62.2454 130.532 61.7402 131.541 60.4785C132.476 59.308 132.726 58.3586 132.534 56.7042L132.4 55.5604L133.111 54.8517C133.501 54.4618 134.114 53.6073 134.472 52.9526C135.112 51.7815 135.306 51.6291 135.368 52.2469C135.41 52.6533 134.407 54.3175 133.626 55.1381C132.931 55.871 132.775 56.4573 132.917 57.8231C133.023 58.8531 132.708 59.9654 132.049 60.896C131.145 62.1709 128.626 63.0861 127.285 62.628ZM116.789 62.1354C116.685 61.1566 117.039 59.5005 117.424 59.1673C117.661 58.9604 117.683 58.811 117.56 58.2829C117.477 57.9325 117.407 57.1685 117.406 56.5851C117.402 55.5534 117.409 55.536 117.642 55.9539C117.807 56.2486 117.886 56.7147 117.894 57.4428C117.9 58.0257 117.911 58.6823 117.919 58.9027C117.927 59.1216 117.832 59.4409 117.707 59.6117C117.352 60.0964 117.15 60.9347 117.142 61.9616C117.134 63.1127 116.904 63.2265 116.789 62.1354ZM65.142 67.9684C64.041 67.7728 63.3679 67.5227 62.9596 67.1582C62.6943 66.9226 62.7493 66.9244 63.4332 67.1763C63.8576 67.333 64.7633 67.5099 65.4452 67.5696C66.5818 67.6706 66.7955 67.6479 67.9879 67.2989C71.6551 66.2242 74.7832 63.0029 76.9991 58.0201C77.1834 57.605 77.3692 57.261 77.4098 57.2567C77.4519 57.2523 77.7705 57.358 78.1193 57.4908C78.828 57.7614 78.8496 58.0516 78.1536 57.9873C77.9032 57.9653 77.7055 58.009 77.7136 58.0854C77.7415 58.3492 76.0033 61.578 75.2352 62.6869C74.3996 63.8923 72.5792 65.6687 71.2799 66.5459C70.3099 67.2002 68.2337 67.9246 66.9762 68.0471C66.4792 68.0952 65.6538 68.0598 65.142 67.9684ZM135.405 60.4908C135.147 60.4242 134.79 60.2831 134.612 60.1793L134.287 59.9893L134.6 60.0728C135.305 60.262 136.779 60.1014 137.558 59.7508C139.687 58.7949 140.736 57.0152 140.527 54.7109C140.428 53.6059 140.507 53.155 140.806 53.1233C140.985 53.1044 141.115 54.4637 141.048 55.653C140.905 58.1991 139.269 60.0759 136.861 60.4565C136.319 60.5411 135.663 60.5575 135.405 60.4908ZM122.537 60.3782C122.428 59.356 122.793 57.6518 123.223 57.1592C123.731 56.581 123.997 56.8696 123.555 57.5211C123.192 58.0567 123.064 58.5886 122.93 60.1304C122.884 60.6566 122.795 61.092 122.73 61.0988C122.667 61.1055 122.579 60.7814 122.537 60.3782ZM145.224 57.6753C144.785 57.5824 143.808 57.219 143.8 57.1456C143.797 57.1186 144.163 57.1814 144.614 57.2853C147.413 57.9287 150.719 55.8965 152.569 52.3936C153.871 49.9294 154.332 46.9783 153.772 44.6853C153.611 44.0219 153.267 43.0156 153.006 42.4506C152.747 41.8869 152.561 41.4216 152.593 41.4183C152.758 41.4008 153.579 43.0583 153.89 44.0409C154.744 46.7376 154.538 49.7209 153.312 52.3559C153.084 52.8468 152.462 53.825 151.929 54.5271C151.184 55.5092 150.691 55.9827 149.789 56.583C148.66 57.3329 148.56 57.3692 147.115 57.5601C146.29 57.6686 145.439 57.7208 145.224 57.6753ZM11.9278 70.8938C8.96774 67.0635 9.64301 61.1237 13.3924 58.0079C14.6582 56.957 15.6843 56.5892 17.2068 56.6418C17.8055 56.6633 18.4215 56.7906 18.7093 56.9511C19.2884 57.2763 19.339 57.38 18.8573 57.2567C18.1487 57.0741 16.817 57.1423 16.0182 57.4011C13.9279 58.0785 12.1922 59.9082 11.2231 62.4539C10.2483 65.0168 10.5189 68.1921 11.9073 70.4853C12.5306 71.5151 12.5395 71.6854 11.9278 70.8938ZM108.979 60.6401C108.731 60.442 108.755 59.374 109.041 57.8312C109.204 56.9485 109.387 56.1638 109.448 56.0876C109.704 55.7635 109.726 56.2749 109.512 57.5737C109.388 58.3356 109.242 59.3589 109.19 59.8478C109.138 60.3353 109.042 60.6925 108.979 60.6401ZM53.6548 65.0952C52.8634 64.8774 52.2325 64.5956 52.2173 64.4517C52.2119 64.4007 52.5033 64.4654 52.8643 64.5984C53.7572 64.9268 55.513 64.7546 56.5823 64.2337C57.5443 63.7636 58.37 62.9108 58.5448 62.2042C58.6183 61.907 58.7245 61.6593 58.7816 61.6533C58.9321 61.6373 59.1127 62.035 59.1606 62.4877C59.2189 63.0392 58.0906 64.3393 57.1912 64.7543C56.2643 65.1828 54.567 65.3473 53.6548 65.0952ZM87.8636 61.0896C87.1536 60.9086 86.6396 60.5659 87.271 60.6946C87.4854 60.7371 88.1123 60.7223 88.6657 60.6607C91.0058 60.4024 92.9175 58.2813 93.61 55.1783C93.909 53.8342 93.8079 52.2748 93.3603 51.3385C93.202 51.0067 93.142 50.7706 93.2268 50.8101C93.6051 50.9913 94.0467 52.5193 94.1421 53.9808C94.233 55.3716 94.2075 55.5334 93.7106 56.8333C93.3864 57.68 92.9241 58.5307 92.5137 59.0379C91.2954 60.5369 89.2474 61.4417 87.8636 61.0896ZM145.142 54.6013C144.903 54.3099 144.429 53.0278 144.376 52.5287C144.366 52.4343 144.637 52.248 144.979 52.1163C146.493 51.5363 148.104 49.7274 148.719 47.9194C148.964 47.1993 148.978 46.9129 148.819 45.8401C148.717 45.1552 148.68 44.6165 148.738 44.6438C148.97 44.7556 149.374 46.242 149.376 46.9936C149.379 48.2451 149.004 49.1426 147.926 50.4677C146.975 51.6353 146.792 51.7714 145.018 52.6078C144.87 52.678 144.868 52.8859 145.012 53.4738C145.117 53.9008 145.28 54.367 145.377 54.5097C145.643 54.906 145.453 54.9806 145.142 54.6013ZM39.1426 65.6279C38.4865 65.423 38.4796 65.3146 39.1255 65.3508C40.7813 65.4408 42.8136 62.8917 43.519 59.8389C43.9763 57.8627 44.2016 54.8456 44.0205 53.1339C43.908 52.0713 44.7373 48.9524 46.3047 44.5413C47.0468 42.4531 47.5895 41.2271 47.7243 41.3356C47.8423 41.4308 47.3576 43.1901 46.5928 45.4383C46.1504 46.7355 45.4841 48.893 45.1102 50.233C44.4374 52.6457 44.4313 52.6888 44.5038 54.8257C44.5839 57.1922 44.4888 58.2919 44.0226 60.4282C43.6731 62.0278 43.2483 62.9745 42.3377 64.1742C41.299 65.5451 40.3118 65.9937 39.1426 65.6279ZM123.32 56.2896C123.102 55.9444 123.086 55.7111 123.201 54.5653C123.364 52.9431 123.606 51.7611 123.776 51.7431C123.974 51.7221 123.976 52.1675 123.781 53.5218C123.682 54.2083 123.594 55.2027 123.586 55.731C123.571 56.6768 123.567 56.6848 123.32 56.2896ZM18.6041 66.4937C17.8243 66.1852 17.9198 66.066 18.845 66.1969C21.7952 66.6137 24.397 64.271 24.6198 60.9996C24.6908 59.9448 24.3485 58.2199 23.9358 57.5558C23.758 57.27 23.7657 57.2707 24.0828 57.5645C24.5733 58.0158 25.1679 59.8958 25.182 61.0356C25.1996 62.5811 24.8275 63.6799 23.8945 64.8274C22.8875 66.0661 22.1589 66.4418 20.4291 66.6158C19.5091 66.7071 19.0663 66.6782 18.6041 66.4937ZM130.674 53.0621C129.931 51.71 129.685 50.5341 129.987 49.7671C130.096 49.4888 130.174 49.1563 130.16 49.0289C130.122 48.6647 130.417 48.7274 130.559 49.1125C130.638 49.3315 130.589 49.714 130.425 50.1375C130.138 50.8849 130.248 51.6855 130.797 52.8353C131.161 53.597 131.066 53.7738 130.674 53.0621ZM54.174 59.9812C53.0604 58.1425 52.7593 57.0801 52.3959 53.6903C52.0511 50.4895 52.0509 49.3377 52.3885 45.0523C52.8392 39.3333 54.037 33.4867 55.3485 30.6107C56.1215 28.9148 56.5873 28.2699 57.4149 27.7519C57.8545 27.478 58.2326 27.1258 58.2572 26.9701C58.2972 26.7006 58.3106 26.6977 58.5301 26.9321C58.9653 27.3922 58.8485 27.6547 57.9362 28.2787C57.183 28.7949 56.9507 29.0726 56.3938 30.1363C54.5151 33.7195 53.1932 40.4355 52.735 48.7288C52.6642 50.0003 52.7358 51.2946 53.0258 54.0783C53.4329 57.953 53.515 58.2975 54.4743 60.101C55.0288 61.1426 54.8287 61.0638 54.174 59.9812ZM113.706 53.1499C113.654 52.6764 113.558 52.1244 113.489 51.9225L113.367 51.5565L113.637 51.9068C113.939 52.2993 114.188 53.9703 113.949 53.9956C113.866 54.0044 113.756 53.6235 113.706 53.1499ZM138.66 50.8589C138.113 49.9649 137.762 49.1367 137.704 48.6017C137.648 48.0652 138.154 46.5248 138.339 46.6735C138.538 46.8342 138.539 47.7222 138.34 47.9252C137.961 48.3124 138.03 49.0599 138.55 50.1915C139.091 51.3709 139.134 51.6316 138.66 50.8589ZM17.741 62.3217C17.5295 62.0046 17.5295 62.0046 17.8799 62.254C18.2732 62.5337 18.3139 62.6021 18.1002 62.6247C18.019 62.6333 17.8585 62.4972 17.741 62.3217ZM78.3365 55.058C78.1729 54.9784 78.2598 54.3478 78.736 52.1771C79.0718 50.6487 79.5198 47.9808 79.7337 46.2501C80.2048 42.4067 80.3118 41.9514 80.945 41.0765C81.3485 40.5185 81.4684 40.4301 81.5676 40.6196C81.6419 40.7603 81.5418 41.1664 81.3186 41.6311C80.7593 42.8012 80.6425 43.3653 80.2 46.9904C79.7998 50.267 79.0284 54.3498 78.7079 54.8869C78.6058 55.0583 78.4666 55.1231 78.3365 55.058ZM121.992 50.1981L121.518 50.036L122.194 49.9524C123.442 49.7961 124.2 48.8125 124.07 47.5214C124.026 47.0941 124.054 46.9987 124.18 47.1536C124.42 47.4495 124.52 48.6377 124.346 49.1063C124.07 49.8417 122.748 50.456 121.992 50.1981ZM59.7344 56.4085C59.1367 56.3536 58.2434 56.0359 58.0744 55.8189C57.9297 55.6311 57.9954 55.6332 58.6614 55.831C59.4642 56.0704 61.315 55.8457 62.2697 55.393C63.9114 54.6161 65.6286 52.9718 66.8771 50.9815C67.3392 50.2445 67.7824 49.6732 67.864 49.7116C68.1735 49.8607 68.0435 50.3579 67.4335 51.3652C65.9662 53.7893 63.7375 55.6757 61.7447 56.1821C60.6156 56.4684 60.5042 56.4801 59.7344 56.4085ZM121.247 49.3873C120.293 48.5668 121.103 46.5198 122.438 46.3786C122.695 46.3513 123.056 46.4647 123.305 46.652C123.679 46.9323 123.734 47.0659 123.742 47.7016C123.753 48.7265 123.118 49.5393 122.233 49.633C121.777 49.6812 121.515 49.6151 121.247 49.3873ZM70.7624 52.4845C69.9472 52.1858 69.9561 52.0833 70.7846 52.2199C71.8778 52.3998 73.4408 51.8282 74.2793 50.9392C74.5285 50.6764 74.5369 50.6846 74.4831 51.1253C74.4138 51.6918 74.0372 52.1015 73.3317 52.3793C72.4728 52.7172 71.5018 52.7578 70.7624 52.4845ZM140.217 45.2182C139.645 44.9833 139.657 44.9123 140.264 44.936C140.983 44.9629 141.223 44.7192 140.942 44.2458C139.875 42.4415 141.749 40.2927 144.659 39.9847C145.715 39.8729 147.423 40.1544 147.999 40.5359C148.334 40.7566 148.262 40.7551 147.442 40.5206C145.471 39.9578 142.783 40.6515 141.724 41.9973C141.156 42.7182 141.032 43.3694 141.286 44.3064C141.543 45.2552 141.142 45.5978 140.217 45.2182ZM60.2449 52.2185C60.0216 51.992 59.4669 50.7186 59.3485 50.1612C59.2614 49.7552 59.3023 49.7099 59.9596 49.4661C62.1982 48.6365 64.4861 46.2165 65.4754 43.6323C66.0415 42.1523 66.1338 40.2071 65.6804 39.3154C65.3669 38.6969 65.589 38.6961 65.9283 39.3149C67.0416 41.3371 66.4023 44.2965 64.2905 46.9131C63.163 48.3071 61.9846 49.2487 60.601 49.8619C60.1809 50.0474 59.8478 50.2781 59.8594 50.3739C59.8696 50.4698 60.0186 50.9436 60.1867 51.4244C60.5116 52.3524 60.5228 52.5013 60.2449 52.2185ZM82.8251 48.8783C82.4843 48.5476 83.7379 47.9133 85.2079 47.6713C85.8658 47.5623 86.4459 47.3933 86.4964 47.2955C86.5483 47.196 86.5683 46.8968 86.5402 46.6315C86.3975 45.2114 87.2369 39.8013 87.9942 37.2674C88.7693 34.6711 90.0622 32.1229 90.6354 32.0622C90.7979 32.045 90.9353 32.0638 90.9395 32.1028C90.9436 32.1418 90.7204 32.5489 90.4433 33.0071C89.244 34.9876 88.2679 37.8402 87.7013 41.0116C87.3486 42.9844 86.9784 46.4154 87.0446 47.0844C87.0698 47.3227 87.0471 47.5964 86.9951 47.6943C86.9444 47.7906 86.3865 47.9679 85.7556 48.0877C85.1247 48.2075 84.2633 48.479 83.8416 48.6919C82.9302 49.1521 83.0794 49.1242 82.8251 48.8783ZM81.9864 48.1411C81.978 48.0617 82.1661 46.9066 82.4054 45.5733C83.1423 41.4669 83.1885 40.4223 82.6618 39.7157C82.3605 39.3126 82.3603 39.3111 82.8772 38.7608C83.3843 38.2191 83.4067 38.1289 84.1609 33.5811C84.5822 31.0358 85.0175 28.4496 85.1259 27.8349C85.2343 27.2202 85.2762 26.696 85.2172 26.6704C85.1582 26.6448 84.6661 26.6241 84.1214 26.6242C83.5767 26.6243 81.9223 26.519 80.445 26.3904C76.3018 26.0302 73.4559 25.8798 71.8768 25.9393C68.1316 26.0765 64.8902 27.5654 63.7887 29.6507C63.1844 30.7983 63.1135 31.4802 63.5028 32.4272C63.8968 33.3888 63.9129 33.5266 63.6345 33.556C63.2312 33.5987 62.2992 32.8001 61.8741 32.0464C61.5235 31.4227 61.444 31.1022 61.3899 30.088C61.3371 29.0721 61.3918 28.7116 61.7312 27.8785C62.9286 24.9313 66.3456 22.9161 70.4573 22.734C73.1152 22.6179 75.0724 22.867 81.2691 24.1132C84.3565 24.7336 85.6261 24.913 85.7559 24.7446C85.8121 24.672 86.1215 23.8148 86.4413 22.8398C88.2271 17.4159 90.8712 13.8624 94.3165 12.258C95.0371 11.9211 95.6125 11.7798 96.7627 11.6505C98.653 11.4398 99.5429 11.6821 100.729 12.7296C101.656 13.547 101.978 14.207 102.124 15.5814C102.5 19.1395 99.7465 22.8062 95.1221 24.9006C93.7195 25.5356 91.1987 26.2434 89.8175 26.3896C88.8033 26.4969 88.9261 26.2051 88.288 30.0373C87.91 32.3174 87.8827 32.6628 88.1169 32.2591C88.8044 31.0784 89.618 30.1694 90.4668 29.6355C91.243 29.1486 91.4956 29.0628 92.2568 29.0383C94.3779 28.9669 95.2827 30.5004 94.9699 33.6404C94.8796 34.5412 94.9026 34.9161 95.0672 35.2639C95.2554 35.6623 95.2401 35.7912 94.9403 36.3368C94.0729 37.9169 93.5644 42.3553 94.2297 42.5319C95.1425 42.7748 96.2529 41.4205 97.2099 38.9049C97.9641 36.917 98.0629 36.1108 97.6318 35.4593C97.3509 35.0328 97.3529 35.0235 97.9154 34.3002C98.2529 33.8659 98.5831 33.1913 98.7301 32.6392C98.8662 32.1277 99.2055 31.2082 99.486 30.595C100.605 28.1396 101.588 26.9367 103.296 25.9284C104.002 25.5112 104.257 25.4403 105.117 25.4175C106.065 25.3944 106.154 25.4244 106.834 26.0041L107.55 26.6164L107.596 26.2038C107.729 25.0303 107.728 25.032 108.678 24.8223C109.169 24.7143 109.984 24.4053 110.489 24.1365C111.252 23.7284 111.445 23.6762 111.628 23.8251C111.812 23.9722 111.79 24.1762 111.491 25.0353C111.102 26.1616 110.583 29.3826 110.666 30.1665C110.695 30.4363 110.828 30.7313 110.964 30.82C111.311 31.0501 111.294 31.2064 110.857 31.8225C110.399 32.4682 110.076 33.6329 109.919 35.2198C109.726 37.1558 109.91 38.0548 110.485 37.994C111.416 37.8939 112.505 36.3676 113.405 33.9005C113.954 32.395 113.996 32.1571 113.9 31.1731C113.799 30.1532 113.818 30.0587 114.263 29.4493C114.887 28.5982 115.195 26.7773 115.072 24.6639C114.986 23.1983 114.998 23.1183 115.311 23.0852C115.851 23.028 117.029 22.4319 117.666 21.8947C117.993 21.6191 118.337 21.4296 118.43 21.4729C118.845 21.6729 118.953 22.2617 118.799 23.5146L118.647 24.7781L118.924 24.3047C120.689 21.2959 122.409 19.865 124.203 19.9146C125.985 19.9624 126.712 21.2768 126.632 24.3013C126.603 25.3409 126.648 25.8606 126.778 26.0438C126.927 26.2539 126.877 26.4456 126.524 27.024C125.985 27.9071 125.205 31.3906 125.134 33.2395C125.106 33.9382 125.184 35.1333 125.304 35.895C125.502 37.135 125.592 37.3741 126.162 38.1747C126.512 38.668 126.971 39.1984 127.183 39.3548C128.369 40.225 130.288 40.3902 131.844 39.7556C135.413 38.2988 137.547 34.9114 137.165 31.3053C137.015 29.883 136.739 29.1453 136.043 28.3081C135.325 27.4429 134.678 27.1795 133.553 27.2955C131.945 27.4612 130.845 28.6309 130.799 30.2256C130.759 31.6302 131.447 32.5926 132.416 32.4901C133.153 32.412 133.44 32.7348 133.116 33.2784C132.506 34.3008 131.051 34.7321 129.896 34.2314C128.924 33.8114 128.372 32.8635 128.217 31.3461C128.113 30.3311 128.146 30.0139 128.424 29.3084C129.061 27.6998 130.304 26.5694 132.043 26.0156C134.309 25.2937 136.582 26.0626 137.774 27.9567C138.202 28.6343 138.313 28.9924 138.496 30.2628C138.749 32.0243 138.632 33.1568 138.018 34.907C137.308 36.9328 135.754 38.9584 134.082 40.0401C133.191 40.6179 131.611 41.2126 130.366 41.4413C128.024 41.8711 126.021 41.3768 124.388 39.9658C121.953 37.8593 121.289 35.6623 121.72 31.1426C121.883 29.4461 121.888 28.806 121.744 28.5242C121.581 28.2005 121.615 28.068 122.006 27.534C122.967 26.2184 123.244 22.8017 122.408 22.5795C121.316 22.2889 119.404 25.818 118.413 29.9528C118.015 31.6136 117.579 34.5393 117.436 36.4959L117.33 37.9423L115.853 38.3457C115.041 38.5681 114.24 38.8424 114.072 38.9556C113.905 39.0688 113.689 39.1705 113.591 39.1808C113.397 39.2014 113.401 39.1418 113.692 37.3575C113.795 36.7237 113.86 36.1924 113.837 36.1736C113.815 36.1562 113.501 36.7093 113.138 37.404C112.145 39.3081 110.888 40.3657 109.428 40.5278C108.145 40.6696 107.308 40.1868 106.721 38.9667L106.464 38.4317L106.048 39.2138C105.464 40.3108 104.363 41.6003 103.618 42.0626C102.641 42.6677 101.435 42.8408 100.561 42.5029C99.7374 42.1854 98.8297 41.1993 98.4772 40.2409L98.247 39.6181L97.896 40.4994C97.3965 41.7466 96.7542 42.7936 95.9005 43.7555C94.4741 45.3584 92.485 45.7856 91.397 44.7201C90.3531 43.6985 90.0708 42.5113 90.3556 40.3579C90.5777 38.6899 90.5585 37.8478 90.2859 37.328C90.1732 37.1111 90.2435 36.8839 90.5747 36.4048C91.2672 35.4009 91.6452 33.0345 91.2693 32.0709C91.1443 31.7523 90.9932 31.6334 90.7099 31.63C90.1843 31.6235 89.6043 32.2532 88.8929 33.6107C87.5687 36.1364 86.6275 39.9522 86.2317 44.406C86.134 45.5106 86.0382 46.5604 86.019 46.7382C85.9902 47.0126 85.8404 47.0921 85.0159 47.2657C84.4816 47.3784 83.6366 47.6466 83.1361 47.8633C82.09 48.315 82.0068 48.3344 81.9864 48.1411ZM103.814 39.7063C104.477 39.3436 104.964 38.5617 105.539 36.9261C106.226 34.9801 106.413 33.5948 106.092 32.8331C105.862 32.283 105.869 32.2261 106.247 31.6936C106.725 31.0201 106.809 30.3807 106.637 28.7515C106.521 27.6619 106.462 27.4894 106.102 27.1789C105.454 26.623 105.034 26.7751 104.19 27.8738C103.03 29.3803 102.066 32.4423 102.413 33.5134C102.502 33.786 102.433 34.1903 102.194 34.8143C101.582 36.4006 101.816 39.0266 102.626 39.679C103.084 40.0474 103.183 40.0505 103.814 39.7063ZM91.3622 24.5529C93.2915 24.1077 94.4043 23.6671 95.8599 22.7719C99.0287 20.8255 100.852 16.9663 99.685 14.6785C99.2509 13.8257 98.3462 13.0985 97.6557 13.0428C96.0001 12.9119 94.3256 13.7666 92.9614 15.4402C91.4987 17.2318 90.2306 20.1153 89.5398 23.2196C89.1223 25.0976 89.0942 25.0764 91.3622 24.5529ZM128.699 42.4256C127.991 42.3353 126.103 41.7197 125.955 41.5308C125.894 41.4494 126.153 41.4826 126.534 41.6044C127.929 42.0509 129.111 42.1304 130.587 41.8757C133.121 41.4407 134.933 40.3441 136.698 38.1749C137.95 36.6374 138.694 34.9659 138.974 33.066C139.182 31.6451 139.001 29.5864 138.577 28.5659C138.328 27.9693 138.318 27.8945 138.519 28.1112C138.652 28.2533 138.914 28.8181 139.103 29.368C140.746 34.1667 137.964 39.8718 133.038 41.8072C131.877 42.2635 129.773 42.5635 128.699 42.4256ZM92.7538 46.0103C92.4721 45.9219 92.2391 45.8192 92.2351 45.7818C92.2311 45.7443 92.6213 45.7075 93.1011 45.6977C94.8991 45.665 96.3988 44.4666 97.6446 42.0629C98.2436 40.9082 98.3327 40.8018 98.4473 41.108C98.6537 41.6635 98.0775 42.9188 97.0293 44.1998C96.279 45.1173 95.9027 45.4436 95.2918 45.7098C94.3523 46.1199 93.4461 46.2265 92.7538 46.0103ZM23.8704 51.7914C23.3629 51.7405 22.7468 51.6405 22.5004 51.5696C21.8964 51.3971 20.2854 50.5522 20.3662 50.4527C20.4025 50.4079 20.636 50.4863 20.8852 50.6266C22.6902 51.6374 25.9269 51.4692 27.8548 50.2633C30.151 48.8275 31.4429 45.8385 30.7208 43.6309C30.4238 42.7227 30.4999 42.5934 30.9015 43.3253C32.4899 46.2141 30.5229 50.3143 27.0012 51.4555C25.8125 51.8405 25.1145 51.9159 23.8704 51.7914ZM101.477 43.4366C100.734 43.1908 100.659 42.9821 101.345 43.0671C102.09 43.161 103.089 42.9113 103.9 42.4268C104.545 42.0403 105.82 40.6171 106.307 39.7351L106.569 39.2633L106.785 39.5814C106.958 39.8359 106.966 39.9669 106.819 40.2492C106.434 40.9855 105.158 42.3952 104.479 42.8339C103.611 43.394 102.2 43.6767 101.477 43.4366ZM108.829 41.2019C108.205 40.9088 108.14 40.7701 108.695 40.9144C109.827 41.2115 111.277 40.5624 112.451 39.2318C112.819 38.8154 113.142 38.4917 113.169 38.5147C113.197 38.5374 113.177 38.8108 113.125 39.1225C112.884 40.5681 110.221 41.8578 108.829 41.2019ZM94.4917 42.0601C94.0101 41.1184 95.1836 35.9761 95.8968 35.9006C96.1933 35.8692 96.2082 36.3268 95.9297 36.8004C95.6033 37.3533 94.764 40.9097 94.8209 41.4903C94.8415 41.6851 94.8042 41.9512 94.7404 42.0808C94.6415 42.2822 94.6046 42.2785 94.4917 42.0601ZM114.085 39.9364C113.858 39.7542 113.967 39.6139 114.691 39.1538C115.283 38.7774 115.651 38.6597 116.522 38.5675C117.136 38.5025 117.647 38.3771 117.695 38.2811C117.74 38.187 117.865 37.128 117.973 35.9299C118.441 30.7243 119.653 26.3523 121.318 23.8815C121.775 23.2043 122.249 22.9312 122.471 23.2169C122.524 23.2841 122.214 23.8352 121.782 24.4387C120.06 26.8535 118.862 31.2663 118.5 36.5394C118.428 37.5897 118.326 38.5538 118.273 38.6852C118.205 38.8577 117.897 38.9569 117.143 39.0488C116.48 39.1312 115.824 39.3218 115.315 39.5834C114.468 40.0186 114.259 40.0785 114.085 39.9364ZM126.488 38.0264C125.906 36.968 125.716 36.2212 125.652 34.7442C125.573 32.9172 125.711 31.5856 126.196 29.511C126.6 27.7784 126.805 27.258 127.263 26.8003C127.866 26.2 128.004 26.8159 127.461 27.6811C126.975 28.4555 126.441 30.4959 126.233 32.3669C126.043 34.0663 126.305 37.3032 126.69 38.0051C126.814 38.2329 126.887 38.4541 126.853 38.497C126.818 38.5387 126.654 38.3271 126.488 38.0264ZM42.7214 45.8481C42.6052 45.527 42.3371 43.6124 42.1233 41.592C41.7531 38.0938 41.7471 37.8504 41.9782 36.4544C42.1119 35.6476 42.3821 34.5353 42.5791 33.981C42.9271 32.9999 42.9435 32.9815 43.1477 33.3297C43.3271 33.6305 43.3115 33.814 43.0492 34.4981C42.382 36.2449 42.3201 38.9234 42.8082 44.9296C42.9169 46.2578 42.9068 46.3635 42.7214 45.8481ZM20.9755 47.354C20.7382 47.0669 20.3965 46.4408 20.2166 45.9627C19.0771 42.9309 20.4001 39.158 23.225 37.3844C25.4193 36.0063 27.2225 35.8503 32.1534 36.6091C33.2577 36.7787 34.4269 36.8429 35.4865 36.7913C37.5088 36.6925 37.661 36.9659 35.7328 37.2351C34.6832 37.3811 34.0442 37.3669 32.5319 37.1662C29.3189 36.7394 27.2617 36.7101 25.8393 37.0713C22.2745 37.9775 20.0796 41.1895 20.4813 44.9132C20.5756 45.7898 20.9742 46.9965 21.3507 47.5492C21.6929 48.051 21.4433 47.9213 20.9755 47.354ZM110.439 36.2938C110.362 34.6515 110.722 32.7946 111.266 32.0232C111.598 31.5516 111.73 31.4604 111.894 31.587C112.058 31.7166 112.032 31.8739 111.764 32.3615C111.345 33.1243 111.022 34.4922 110.951 35.8061C110.87 37.3379 110.842 37.5015 110.663 37.5205C110.548 37.5326 110.477 37.1476 110.439 36.2938ZM130.529 35.1162C130.147 34.9869 129.862 34.8442 129.898 34.8026C129.933 34.7595 130.345 34.7628 130.816 34.8115C131.551 34.8853 131.765 34.8505 132.334 34.5614C133.002 34.2224 133.682 33.4261 133.64 33.0304C133.606 32.7036 133.869 32.7515 134 33.0968C134.161 33.5224 134.006 33.9874 133.51 34.5642C132.944 35.2258 131.585 35.4773 130.529 35.1162ZM80.8866 39.6914C80.5432 39.02 80.7845 36.1967 81.3628 34.1273C81.7146 32.8655 81.695 32.8964 82.0144 33.1535C82.2506 33.3438 82.2527 33.4208 82.039 33.9754C81.6836 34.9012 81.1698 37.6942 81.177 38.6543C81.1849 39.6629 81.0746 40.058 80.8866 39.6914ZM26.0447 44.144C25.8234 44.0507 25.7274 43.9351 25.8133 43.8699C25.9877 43.7348 26.6894 43.8954 26.8549 44.1083C27.0169 44.3154 26.5064 44.3376 26.0447 44.144ZM131.693 31.8846C131.384 31.5853 131.187 30.5134 131.305 29.7811C131.445 28.8948 132.259 28.0145 133.149 27.7839C134 27.5634 134.781 27.6203 135.127 27.9292C135.381 28.1554 135.338 28.1705 134.338 28.2204C133.388 28.2662 133.222 28.3202 132.711 28.7396C131.976 29.3432 131.635 30.3418 131.814 31.3565C131.885 31.7566 131.933 32.0864 131.923 32.0876C131.912 32.0887 131.808 31.9966 131.693 31.8846ZM95.6121 35.2805C95.5347 35.1387 95.4787 34.6672 95.489 34.2326C95.529 32.3961 95.4041 30.8422 95.1898 30.5284C95.0725 30.3544 95.0089 30.1702 95.0521 30.1186C95.1853 29.9545 95.7276 31.0959 95.8848 31.8765C96.0665 32.7742 95.8342 35.6829 95.6121 35.2805ZM111.34 30.6514C111.164 30.3942 111.127 30.1056 111.179 29.3468C111.33 27.1181 112.108 24.0456 112.478 24.2216C112.728 24.3421 112.708 24.7838 112.41 25.705C112.029 26.885 111.721 28.5453 111.637 29.8743C111.573 30.898 111.55 30.958 111.34 30.6514ZM63.944 34.2235C63.788 34.0717 63.8236 34.0058 64.1181 33.8989C64.5457 33.7415 64.5559 33.4782 64.1576 32.8777C64.0034 32.6425 63.8383 32.1174 63.7923 31.7115C63.5878 29.9236 65.3727 27.9417 67.9286 27.1195C69.4838 26.6185 73.5717 26.2555 75.6568 26.4334C77.7373 26.6118 82.4418 26.9853 83.4687 27.0555C84.4938 27.1243 84.6134 27.1753 84.3913 27.4489C84.2338 27.6429 84.0871 27.6372 77.7389 27.2012C70.5169 26.7046 67.1556 27.4059 65.2078 29.8188C64.2406 31.0169 64.0531 32.3068 64.6945 33.3499C64.8599 33.6188 64.9664 33.95 64.9292 34.0874C64.8475 34.3931 64.2086 34.4804 63.944 34.2235ZM88.6453 30.5527C88.6423 30.5242 88.6821 30.2972 88.7352 30.0506C88.7865 29.8027 88.9407 29.0028 89.0764 28.2716L89.3236 26.942L90.8589 26.684C94.3073 26.1008 97.3469 24.6591 99.6123 22.5309C102.222 20.0783 103.234 16.8718 102.276 14.0831C102.1 13.5727 102.105 13.5313 102.309 13.7521C102.749 14.2285 103.144 15.9463 103.085 17.1316C102.857 21.845 97.9657 25.9485 91.0198 27.2551L89.7369 27.4969L89.5221 28.7018C89.3052 29.916 89.0556 30.5623 88.7923 30.5902C88.714 30.5985 88.6483 30.5812 88.6453 30.5527ZM127.176 26.0123C127.105 25.8743 127.076 25.2894 127.111 24.7143C127.188 23.3755 127.004 21.6202 126.742 21.2205C126.555 20.9326 126.56 20.926 126.82 21.1258C127.39 21.5627 127.711 23.1609 127.587 24.9503C127.511 26.0542 127.376 26.4019 127.176 26.0123ZM119.258 22.2127C119.241 22.0478 119.294 21.9058 119.377 21.897C119.459 21.8883 119.541 22.016 119.559 22.1808C119.576 22.3457 119.523 22.4878 119.44 22.4965C119.357 22.5053 119.275 22.3776 119.258 22.2127ZM62.852 64.0718C62.0765 62.8247 61.9938 61.2239 62.6373 59.9872C63.2606 58.7891 64.7362 57.9813 65.4963 58.4207C65.7751 58.5821 65.7607 58.6048 65.2949 58.7466C65.0176 58.829 64.4627 59.1348 64.0612 59.4243C63.0632 60.1438 62.6169 61.3034 62.7896 62.734C62.8559 63.2742 63.0062 63.9039 63.1262 64.1322C63.4697 64.7899 63.2703 64.7459 62.852 64.0718ZM67.4489 62.638C66.7096 62.4086 66.6422 62.2035 67.3093 62.2102C68.0543 62.2193 68.519 61.8942 68.8714 61.1128C69.1092 60.5845 69.1294 60.3444 68.9859 59.6639C68.8913 59.2162 68.78 58.6824 68.7389 58.4806C68.676 58.1735 68.7924 58.0233 69.4434 57.5755C70.1511 57.0884 70.3543 57.0244 71.639 56.8854C72.6394 56.778 73.0784 56.7861 73.1375 56.9132C73.1967 57.0403 73.0159 57.1155 72.5239 57.1676C71.4315 57.2832 69.8265 57.8881 69.3769 58.3555C69.0327 58.7117 69.0018 58.8226 69.1579 59.1334C69.4286 59.664 69.5236 60.9058 69.3398 61.5133C69.0744 62.3977 68.2514 62.888 67.4489 62.638ZM87.649 58.2569C87.4102 57.6396 87.5253 57.2319 88.2264 56.2089C88.5427 55.7465 88.9203 55.117 89.0644 54.8107L89.3263 54.2525L89.3861 54.8025C89.4446 55.3555 89.3095 55.632 88.3859 56.8528C88.0243 57.3321 87.9568 57.6439 88.0444 58.4424C88.0921 58.8784 87.8454 58.762 87.649 58.2569ZM83.7677 56.2883C83.5749 56.192 83.62 56.0144 84.0316 55.26C84.8038 53.8446 86.2448 52.034 87.0263 51.4966C87.8914 50.9019 88.871 50.6406 89.6262 50.8032C90.4919 50.9904 90.4397 51.1293 89.4677 51.2322C88.1361 51.3731 86.9804 52.1562 85.7967 53.7228C85.2841 54.4 84.7045 55.2782 84.509 55.6733C84.1226 56.4508 84.1142 56.4577 83.7677 56.2883ZM72.3411 48.5118C72.267 48.415 72.1371 47.6619 72.0559 46.8369C71.8905 45.1888 72.0563 43.7936 72.4743 43.3295C72.6756 43.1036 72.6995 42.898 72.5838 42.3373C72.3942 41.4087 72.7728 39.7818 73.5465 38.1934C74.3669 36.5137 75.0393 35.9378 75.5769 36.4599C75.748 36.6252 75.7466 36.6693 75.5751 36.6874C75.2802 36.7186 74.3336 37.9676 73.9518 38.831C73.4143 40.0488 73.0582 41.6733 73.1069 42.6942C73.1379 43.3745 73.0769 43.7613 72.8987 44.0045C72.4783 44.5749 72.3671 45.5082 72.5307 47.1261C72.6773 48.5974 72.6371 48.8927 72.3411 48.5118ZM59.4768 46.7876C59.4367 46.4084 60.0326 43.8734 60.3785 42.9578C61.0578 41.1536 62.3654 39.5056 62.6608 40.0836C62.7256 40.2071 62.5414 40.5797 62.2062 41.0062C61.4149 42.0115 60.6204 43.8491 60.2469 45.5391C60.0456 46.4546 59.8513 46.9905 59.7159 47.0048C59.5985 47.0172 59.4908 46.9195 59.4768 46.7876ZM102.765 66.1295C102.646 65.8298 102.519 65.3067 102.483 64.9665C102.385 64.0554 102.792 61.5283 103.224 60.3534C103.57 59.4196 104.449 58.1838 104.794 58.1473C105.169 58.1077 105.101 58.4619 104.641 58.9577C103.562 60.1207 102.716 63.74 103.049 65.772C103.213 66.7731 103.084 66.9353 102.765 66.1295ZM127.004 60.1888C126.669 59.4241 127.198 58.448 128.262 57.8747C128.949 57.505 128.929 57.5056 128.957 57.8254C128.97 57.9816 128.68 58.3048 128.242 58.621C127.599 59.0846 127.495 59.2381 127.43 59.8057C127.349 60.516 127.204 60.645 127.004 60.1888ZM134.925 57.9515C134.778 57.664 134.757 57.3979 134.848 56.9746C134.949 56.4955 135.117 56.2974 135.792 55.8516C136.474 55.4021 136.641 55.3435 136.771 55.5086C136.889 55.6598 136.748 55.8413 136.2 56.251C135.578 56.7154 135.445 56.9084 135.299 57.571C135.128 58.3453 135.127 58.3455 134.925 57.9515ZM126.835 56.4238C126.8 56.097 127.424 54.2548 127.549 54.3143C127.789 54.4298 127.752 54.9551 127.446 55.7544C127.174 56.4682 126.874 56.7955 126.835 56.4238ZM97.7546 57.5784C97.6594 57.0095 98.8552 52.9833 99.5692 51.4634C99.9554 50.642 100.247 50.3383 100.134 50.8732C99.9323 51.8327 97.7995 57.8449 97.7546 57.5784ZM144.646 49.228C144.748 48.6201 144.962 47.7836 145.12 47.3667C145.41 46.6101 146.128 45.5884 146.39 45.5606C146.638 45.5344 146.578 45.9409 146.285 46.2674C145.839 46.7648 145.398 47.8511 145.149 49.0718C145.008 49.752 144.83 50.2149 144.69 50.2585C144.491 50.322 144.486 50.1876 144.646 49.228ZM102.808 39.4673C102.647 39.3101 102.534 38.8097 102.435 37.8017C102.276 36.1924 102.378 35.307 102.8 34.6379C103.027 34.2775 103.065 33.9734 102.988 33.1207C102.919 32.349 102.969 31.8148 103.167 31.1906C103.869 28.9945 104.899 27.3078 105.525 27.3294C105.91 27.3432 106.172 27.8413 105.814 27.8792C105.695 27.8918 105.353 28.2281 105.055 28.628C104.116 29.8868 103.481 31.9454 103.489 33.7118C103.493 34.4252 103.404 34.865 103.185 35.2277C102.794 35.8723 102.696 37.3497 102.958 38.6769C103.065 39.2279 103.129 39.6819 103.097 39.6852C103.065 39.6886 102.935 39.5903 102.808 39.4673ZM89.9042 24.2904C89.7686 24.1169 90.2639 22.0972 90.8361 20.4877C92.3415 16.253 94.2969 13.956 96.7364 13.5584C97.5201 13.43 97.7867 13.4472 98.0855 13.6399C98.4563 13.8795 98.4519 13.8815 97.3614 14C96.5024 14.0924 96.115 14.2137 95.5866 14.5546C93.7396 15.7488 92.0571 18.4685 90.967 22.0273C90.716 22.8466 90.4844 23.7062 90.4512 23.9385C90.3945 24.3371 90.0909 24.5314 89.9042 24.2904Z" fill="url(#paint0_linear_0_1)"/>
</g>
</g>
</g>
</g>
</g>
</g>
<defs>
<filter id="filter0_d_0_1" x="7.90967" y="11.5809" width="151.731" height="80.7058" filterUnits="userSpaceOnUse" color-interpolation-filters="sRGB">
<feFlood flood-opacity="0" result="BackgroundImageFix"/>
<feColorMatrix in="SourceAlpha" type="matrix" values="0 0 0 0 0 0 0 0 0 0 0 0 0 0 0 0 0 0 127 0" result="hardAlpha"/>
<feOffset dx="2.90668" dy="2.32534"/>
<feGaussianBlur stdDeviation="1.16267"/>
<feComposite in2="hardAlpha" operator="out"/>
<feColorMatrix type="matrix" values="0 0 0 0 0.234826 0 0 0 0 0.0578156 0 0 0 0 0.14337 0 0 0 1 0"/>
<feBlend mode="normal" in2="BackgroundImageFix" result="effect1_dropShadow_0_1"/>
<feBlend mode="normal" in="SourceGraphic" in2="effect1_dropShadow_0_1" result="shape"/>
</filter>
<linearGradient id="paint0_linear_0_1" x1="116.5" y1="17.5" x2="40" y2="85" gradientUnits="userSpaceOnUse">
<stop stop-color="#FFC3CF"/>
<stop offset="1" stop-color="#CB98A2"/>
</linearGradient>
<clipPath id="clip0_0_1">
<rect width="1440" height="4967" fill="white"/>
</clipPath>
</defs>
</svg>
